<?xml version="1.0" encoding="UTF-8" standalone="no"?>
<!DOCTYPE svg PUBLIC "-//W3C//DTD SVG 1.1//EN"
 "http://www.w3.org/Graphics/SVG/1.1/DTD/svg11.dtd">
<!-- Generated by graphviz version 14.1.2 (20260124.0452)
 -->
<!-- Pages: 1 -->
<svg width="932pt" height="332pt"
 viewBox="0.00 0.00 932.00 332.00" xmlns="http://www.w3.org/2000/svg" xmlns:xlink="http://www.w3.org/1999/xlink">
<g id="graph0" class="graph" transform="scale(1 1) rotate(0) translate(4 327.5)">
<polygon fill="white" stroke="none" points="-4,4 -4,-327.5 928,-327.5 928,4 -4,4"/>
<g id="clust1" class="cluster">
<title>outer_cluster___main__.Stmt&#45;3</title>
</g>
<g id="clust2" class="cluster">
<title>cluster___main__.Stmt&#45;3</title>
<path fill="#ffffb3" stroke="black" stroke-dasharray="5,2" d="M23,-169C23,-169 99,-169 99,-169 105,-169 111,-175 111,-181 111,-181 111,-199 111,-199 111,-205 105,-211 99,-211 99,-211 23,-211 23,-211 17,-211 11,-205 11,-199 11,-199 11,-181 11,-181 11,-175 17,-169 23,-169"/>
</g>
<g id="clust4" class="cluster">
<title>outer_cluster___main__.Stmt&#45;0</title>
</g>
<g id="clust5" class="cluster">
<title>cluster___main__.Stmt&#45;0</title>
<path fill="#ffffb3" stroke="black" stroke-dasharray="5,2" d="M318,-90C318,-90 394,-90 394,-90 400,-90 406,-96 406,-102 406,-102 406,-120 406,-120 406,-126 400,-132 394,-132 394,-132 318,-132 318,-132 312,-132 306,-126 306,-120 306,-120 306,-102 306,-102 306,-96 312,-90 318,-90"/>
</g>
<g id="clust7" class="cluster">
<title>outer_cluster___main__.Stmt&#45;2</title>
</g>
<g id="clust8" class="cluster">
<title>cluster___main__.Stmt&#45;2</title>
<path fill="#ffffb3" stroke="black" stroke-dasharray="5,2" d="M423,-169C423,-169 541,-169 541,-169 547,-169 553,-175 553,-181 553,-181 553,-199 553,-199 553,-205 547,-211 541,-211 541,-211 423,-211 423,-211 417,-211 411,-205 411,-199 411,-199 411,-181 411,-181 411,-175 417,-169 423,-169"/>
</g>
<g id="clust10" class="cluster">
<title>outer_cluster___main__.Stmt&#45;1</title>
</g>
<g id="clust11" class="cluster">
<title>cluster___main__.Stmt&#45;1</title>
<path fill="#ffffb3" stroke="black" stroke-dasharray="5,2" d="M507,-90C507,-90 583,-90 583,-90 589,-90 595,-96 595,-102 595,-102 595,-120 595,-120 595,-126 589,-132 583,-132 583,-132 507,-132 507,-132 501,-132 495,-126 495,-120 495,-120 495,-102 495,-102 495,-96 501,-90 507,-90"/>
</g>
<g id="clust13" class="cluster">
<title>outer_cluster___main__.Stmt&#45;4</title>
</g>
<g id="clust14" class="cluster">
<title>cluster___main__.Stmt&#45;4</title>
<path fill="#ffffb3" stroke="black" stroke-dasharray="5,2" d="M252,-248C252,-248 370,-248 370,-248 376,-248 382,-254 382,-260 382,-260 382,-300.5 382,-300.5 382,-306.5 376,-312.5 370,-312.5 370,-312.5 252,-312.5 252,-312.5 246,-312.5 240,-306.5 240,-300.5 240,-300.5 240,-260 240,-260 240,-254 246,-248 252,-248"/>
<text xml:space="preserve" text-anchor="start" x="291.38" y="-297.95" font-family="Helvetica,sans-Serif" font-size="9.00">let</text>
<text xml:space="preserve" text-anchor="start" x="305.12" y="-297.95" font-family="Helvetica,sans-Serif" font-size="9.00">output</text>
</g>
<g id="clust16" class="cluster">
<title>outer_cluster___main__.TestExpr&#45;5</title>
</g>
<g id="clust17" class="cluster">
<title>cluster___main__.TestExpr&#45;5</title>
<path fill="#bebada" stroke="black" stroke-dasharray="5,2" d="M129,-169C129,-169 269,-169 269,-169 275,-169 281,-175 281,-181 281,-181 281,-199 281,-199 281,-205 275,-211 269,-211 269,-211 129,-211 129,-211 123,-211 117,-205 117,-199 117,-199 117,-181 117,-181 117,-175 123,-169 129,-169"/>
</g>
<g id="clust19" class="cluster">
<title>outer_cluster___main__.TestExpr&#45;6</title>
</g>
<g id="clust20" class="cluster">
<title>cluster___main__.TestExpr&#45;6</title>
<path fill="#bebada" stroke="black" stroke-dasharray="5,2" d="M695,-169C695,-169 835,-169 835,-169 841,-169 847,-175 847,-181 847,-181 847,-199 847,-199 847,-205 841,-211 835,-211 835,-211 695,-211 695,-211 689,-211 683,-205 683,-199 683,-199 683,-181 683,-181 683,-175 689,-169 695,-169"/>
</g>
<g id="clust22" class="cluster">
<title>outer_cluster___main__.TestExpr&#45;7</title>
</g>
<g id="clust23" class="cluster">
<title>cluster___main__.TestExpr&#45;7</title>
<path fill="#bebada" stroke="black" stroke-dasharray="5,2" d="M580,-248C580,-248 720,-248 720,-248 726,-248 732,-254 732,-260 732,-260 732,-278 732,-278 732,-284 726,-290 720,-290 720,-290 580,-290 580,-290 574,-290 568,-284 568,-278 568,-278 568,-260 568,-260 568,-254 574,-248 580,-248"/>
</g>
<g id="clust25" class="cluster">
<title>outer_cluster_i64&#45;9</title>
</g>
<g id="clust26" class="cluster">
<title>cluster_i64&#45;9</title>
<path fill="#fb8072" stroke="black" stroke-dasharray="5,2" d="M865,-169C865,-169 901,-169 901,-169 907,-169 913,-175 913,-181 913,-181 913,-199 913,-199 913,-205 907,-211 901,-211 901,-211 865,-211 865,-211 859,-211 853,-205 853,-199 853,-199 853,-181 853,-181 853,-175 859,-169 865,-169"/>
</g>
<g id="clust28" class="cluster">
<title>outer_cluster_split&#45;0&#45;primitive&#45;i64&#45;6</title>
</g>
<g id="clust29" class="cluster">
<title>cluster_split&#45;0&#45;primitive&#45;i64&#45;6</title>
<path fill="#fb8072" stroke="black" stroke-dasharray="5,2" d="M776,-90C776,-90 812,-90 812,-90 818,-90 824,-96 824,-102 824,-102 824,-120 824,-120 824,-126 818,-132 812,-132 812,-132 776,-132 776,-132 770,-132 764,-126 764,-120 764,-120 764,-102 764,-102 764,-96 770,-90 776,-90"/>
</g>
<g id="clust31" class="cluster">
<title>outer_cluster_i64&#45;3</title>
</g>
<g id="clust32" class="cluster">
<title>cluster_i64&#45;3</title>
<path fill="#fb8072" stroke="black" stroke-dasharray="5,2" d="M97,-90C97,-90 133,-90 133,-90 139,-90 145,-96 145,-102 145,-102 145,-120 145,-120 145,-126 139,-132 133,-132 133,-132 97,-132 97,-132 91,-132 85,-126 85,-120 85,-120 85,-102 85,-102 85,-96 91,-90 97,-90"/>
</g>
<g id="clust34" class="cluster">
<title>outer_cluster_i64&#45;6</title>
</g>
<g id="clust35" class="cluster">
<title>cluster_i64&#45;6</title>
<path fill="#fb8072" stroke="black" stroke-dasharray="5,2" d="M43,-248C43,-248 137,-248 137,-248 143,-248 149,-254 149,-260 149,-260 149,-278 149,-278 149,-284 143,-290 137,-290 137,-290 43,-290 43,-290 37,-290 31,-284 31,-278 31,-278 31,-260 31,-260 31,-254 37,-248 43,-248"/>
</g>
<g id="clust37" class="cluster">
<title>outer_cluster_split&#45;0&#45;primitive&#45;i64&#45;2</title>
</g>
<g id="clust38" class="cluster">
<title>cluster_split&#45;0&#45;primitive&#45;i64&#45;2</title>
<path fill="#fb8072" stroke="black" stroke-dasharray="5,2" d="M527,-11C527,-11 563,-11 563,-11 569,-11 575,-17 575,-23 575,-23 575,-41 575,-41 575,-47 569,-53 563,-53 563,-53 527,-53 527,-53 521,-53 515,-47 515,-41 515,-41 515,-23 515,-23 515,-17 521,-11 527,-11"/>
</g>
<g id="clust40" class="cluster">
<title>outer_cluster_i64&#45;4</title>
</g>
<g id="clust41" class="cluster">
<title>cluster_i64&#45;4</title>
<path fill="#fb8072" stroke="black" stroke-dasharray="5,2" d="M571,-169C571,-169 665,-169 665,-169 671,-169 677,-175 677,-181 677,-181 677,-199 677,-199 677,-205 671,-211 665,-211 665,-211 571,-211 571,-211 565,-211 559,-205 559,-199 559,-199 559,-181 559,-181 559,-175 565,-169 571,-169"/>
</g>
<g id="clust43" class="cluster">
<title>outer_cluster_i64&#45;2</title>
</g>
<g id="clust44" class="cluster">
<title>cluster_i64&#45;2</title>
<path fill="#fb8072" stroke="black" stroke-dasharray="5,2" d="M299,-169C299,-169 393,-169 393,-169 399,-169 405,-175 405,-181 405,-181 405,-199 405,-199 405,-205 399,-211 393,-211 393,-211 299,-211 299,-211 293,-211 287,-205 287,-199 287,-199 287,-181 287,-181 287,-175 293,-169 299,-169"/>
</g>
<g id="clust46" class="cluster">
<title>outer_cluster_i64&#45;1</title>
</g>
<g id="clust47" class="cluster">
<title>cluster_i64&#45;1</title>
<path fill="#fb8072" stroke="black" stroke-dasharray="5,2" d="M338,-11C338,-11 374,-11 374,-11 380,-11 386,-17 386,-23 386,-23 386,-41 386,-41 386,-47 380,-53 374,-53 374,-53 338,-53 338,-53 332,-53 326,-47 326,-41 326,-41 326,-23 326,-23 326,-17 332,-11 338,-11"/>
</g>
<!-- function&#45;2&#45;__main___Stmt_IntLiteral&#45;&gt;primitive&#45;i64&#45;3 -->
<g id="edge1" class="edge">
<title>function&#45;2&#45;__main___Stmt_IntLiteral:s&#45;&gt;primitive&#45;i64&#45;3</title>
<path fill="none" stroke="black" d="M61,-174C61,-157.62 71.85,-143.46 83.83,-132.83"/>
<polygon fill="black" stroke="black" points="81.3,-137.43 83.87,-132.79 78.97,-134.81 81.3,-137.43"/>
</g>
<!-- function&#45;0&#45;__main___Stmt_IntLiteral&#45;&gt;primitive&#45;i64&#45;1 -->
<g id="edge2" class="edge">
<title>function&#45;0&#45;__main___Stmt_IntLiteral:s&#45;&gt;primitive&#45;i64&#45;1</title>
<path fill="none" stroke="black" d="M356,-95C356,-82.22 356,-67.96 356,-56.35"/>
<polygon fill="black" stroke="black" points="357.75,-59.51 356,-54.51 354.25,-59.51 357.75,-59.51"/>
</g>
<!-- function&#45;0&#45;__main___Stmt_Add&#45;&gt;function&#45;0&#45;__main___Stmt_IntLiteral -->
<g id="edge3" class="edge">
<title>function&#45;0&#45;__main___Stmt_Add:s&#45;&gt;function&#45;0&#45;__main___Stmt_IntLiteral</title>
<path fill="none" stroke="black" d="M430.94,-174C430.94,-157.94 420.6,-145.26 407.6,-135.66"/>
<polygon fill="black" stroke="black" points="408.65,-134.26 403.54,-132.86 406.66,-137.14 408.65,-134.26"/>
</g>
<!-- function&#45;0&#45;__main___Stmt_Add&#45;&gt;function&#45;1&#45;__main___Stmt_IntLiteral -->
<g id="edge4" class="edge">
<title>function&#45;0&#45;__main___Stmt_Add:s&#45;&gt;function&#45;1&#45;__main___Stmt_IntLiteral</title>
<path fill="none" stroke="black" d="M463.06,-174C463.06,-155.41 476.64,-141.68 492.75,-131.93"/>
<polygon fill="black" stroke="black" points="490,-135.31 493.65,-131.47 488.4,-132.19 490,-135.31"/>
</g>
<!-- function&#45;1&#45;__main___Stmt_IntLiteral&#45;&gt;split&#45;0&#45;primitive&#45;i64&#45;2 -->
<g id="edge7" class="edge">
<title>function&#45;1&#45;__main___Stmt_IntLiteral:s&#45;&gt;split&#45;0&#45;primitive&#45;i64&#45;2</title>
<path fill="none" stroke="black" d="M545,-95C545,-82.22 545,-67.96 545,-56.35"/>
<polygon fill="black" stroke="black" points="546.75,-59.51 545,-54.51 543.25,-59.51 546.75,-59.51"/>
</g>
<!-- function&#45;2&#45;__main___Stmt_Add&#45;&gt;function&#45;0&#45;__main___Stmt_IntLiteral -->
<g id="edge6" class="edge">
<title>function&#45;2&#45;__main___Stmt_Add:s&#45;&gt;function&#45;0&#45;__main___Stmt_IntLiteral</title>
<path fill="none" stroke="black" d="M533.06,-174C533.06,-147.48 461.39,-129.6 409.24,-120.11"/>
<polygon fill="black" stroke="black" points="412.57,-118.48 407.51,-120.05 412.45,-121.98 412.57,-118.48"/>
</g>
<!-- function&#45;2&#45;__main___Stmt_Add&#45;&gt;function&#45;1&#45;__main___Stmt_IntLiteral -->
<g id="edge5" class="edge">
<title>function&#45;2&#45;__main___Stmt_Add:s&#45;&gt;function&#45;1&#45;__main___Stmt_IntLiteral</title>
<path fill="none" stroke="black" d="M500.94,-174C500.94,-158.52 510.18,-144.21 520.2,-133.25"/>
<polygon fill="black" stroke="black" points="518,-137.76 520.42,-133.04 515.59,-135.22 518,-137.76"/>
</g>
<!-- function&#45;1&#45;__main___Stmt_Add&#45;&gt;function&#45;2&#45;__main___Stmt_IntLiteral -->
<g id="edge9" class="edge">
<title>function&#45;1&#45;__main___Stmt_Add:s&#45;&gt;function&#45;2&#45;__main___Stmt_IntLiteral</title>
<path fill="none" stroke="black" d="M292.06,-253C292.06,-212.93 154.2,-226.11 116,-214 115.09,-213.71 114.18,-213.42 113.27,-213.11"/>
<polygon fill="black" stroke="black" points="113.9,-211.48 108.6,-211.49 112.75,-214.79 113.9,-211.48"/>
</g>
<!-- function&#45;1&#45;__main___Stmt_Add&#45;&gt;function&#45;0&#45;__main___Stmt_Add -->
<g id="edge8" class="edge">
<title>function&#45;1&#45;__main___Stmt_Add:s&#45;&gt;function&#45;0&#45;__main___Stmt_Add</title>
<path fill="none" stroke="black" d="M259.94,-253C259.94,-185.81 343.75,-239.3 406,-214 406.42,-213.83 406.84,-213.65 407.27,-213.48"/>
<polygon fill="black" stroke="black" points="407.57,-215.26 411.42,-211.62 406.14,-212.06 407.57,-215.26"/>
</g>
<!-- function&#45;3&#45;__main___Stmt_Add&#45;&gt;function&#45;2&#45;__main___Stmt_IntLiteral -->
<g id="edge10" class="edge">
<title>function&#45;3&#45;__main___Stmt_Add:s&#45;&gt;function&#45;2&#45;__main___Stmt_IntLiteral</title>
<path fill="none" stroke="black" d="M329.94,-253C329.94,-243.04 318.62,-247.58 309,-245 225.09,-222.49 199.55,-237.81 116,-214 114.83,-213.67 113.65,-213.32 112.47,-212.95"/>
<polygon fill="black" stroke="black" points="113.26,-211.37 107.97,-211.47 112.17,-214.69 113.26,-211.37"/>
</g>
<!-- function&#45;3&#45;__main___Stmt_Add&#45;&gt;function&#45;0&#45;__main___Stmt_Add -->
<g id="edge11" class="edge">
<title>function&#45;3&#45;__main___Stmt_Add:s&#45;&gt;function&#45;0&#45;__main___Stmt_Add</title>
<path fill="none" stroke="black" d="M362.06,-253C362.06,-246.25 390.38,-226.63 414.32,-211.24"/>
<polygon fill="black" stroke="black" points="410.37,-216.2 413.42,-211.88 408.34,-213.35 410.37,-216.2"/>
</g>
<!-- function&#45;0&#45;__main___Stmt_prop2&#45;&gt;function&#45;0&#45;__main___Stmt_IntLiteral -->
<g id="edge12" class="edge">
<title>function&#45;0&#45;__main___Stmt_prop2:s&#45;&gt;function&#45;0&#45;__main___Stmt_IntLiteral</title>
<path fill="none" stroke="black" d="M251,-174C251,-147.04 276.99,-131.56 303.11,-122.81"/>
<polygon fill="black" stroke="black" points="300.27,-125.49 304.55,-122.37 299.26,-122.14 300.27,-125.49"/>
</g>
<!-- function&#45;0&#45;__main___TestExpr_TEST&#45;&gt;primitive&#45;i64&#45;3 -->
<g id="edge13" class="edge">
<title>function&#45;0&#45;__main___TestExpr_TEST:s&#45;&gt;primitive&#45;i64&#45;3</title>
<path fill="none" stroke="black" d="M170,-174C170,-157.49 158.95,-143.32 146.75,-132.71"/>
<polygon fill="black" stroke="black" points="151.5,-133.48 146.3,-132.45 149.72,-136.5 151.5,-133.48"/>
</g>
<!-- function&#45;1&#45;__main___Stmt_prop2&#45;&gt;function&#45;1&#45;__main___Stmt_IntLiteral -->
<g id="edge14" class="edge">
<title>function&#45;1&#45;__main___Stmt_prop2:s&#45;&gt;function&#45;1&#45;__main___Stmt_IntLiteral</title>
<path fill="none" stroke="black" d="M713,-174C713,-149.11 647.25,-131.09 598.02,-121.1"/>
<polygon fill="black" stroke="black" points="601.63,-119.63 596.51,-120.98 601.36,-123.12 601.63,-119.63"/>
</g>
<!-- function&#45;1&#45;__main___TestExpr_TEST&#45;&gt;split&#45;0&#45;primitive&#45;i64&#45;6 -->
<g id="edge15" class="edge">
<title>function&#45;1&#45;__main___TestExpr_TEST:s&#45;&gt;split&#45;0&#45;primitive&#45;i64&#45;6</title>
<path fill="none" stroke="black" d="M794,-174C794,-161.22 794,-146.96 794,-135.35"/>
<polygon fill="black" stroke="black" points="795.75,-138.51 794,-133.51 792.25,-138.51 795.75,-138.51"/>
</g>
<!-- function&#45;2&#45;__main___Stmt_prop2&#45;&gt;function&#45;2&#45;__main___Stmt_IntLiteral -->
<g id="edge16" class="edge">
<title>function&#45;2&#45;__main___Stmt_prop2:s&#45;&gt;function&#45;2&#45;__main___Stmt_IntLiteral</title>
<path fill="none" stroke="black" d="M598,-253C598,-199.27 168.21,-226.69 116,-214 114.6,-213.66 113.2,-213.29 111.79,-212.89"/>
<polygon fill="black" stroke="black" points="112.32,-211.23 107.03,-211.44 111.3,-214.57 112.32,-211.23"/>
</g>
<!-- function&#45;2&#45;__main___TestExpr_TEST&#45;&gt;primitive&#45;i64&#45;9 -->
<g id="edge17" class="edge">
<title>function&#45;2&#45;__main___TestExpr_TEST:s&#45;&gt;primitive&#45;i64&#45;9</title>
<path fill="none" stroke="black" d="M679,-253C679,-175.91 777.12,-244.31 848,-214 848.26,-213.89 848.52,-213.78 848.78,-213.66"/>
<polygon fill="black" stroke="black" points="849.17,-215.42 852.9,-211.66 847.63,-212.27 849.17,-215.42"/>
</g>
<!-- function&#45;2&#45;__main___Stmt_prop&#45;&gt;function&#45;2&#45;__main___Stmt_IntLiteral -->
<g id="edge18" class="edge">
<title>function&#45;2&#45;__main___Stmt_prop:s&#45;&gt;function&#45;2&#45;__main___Stmt_IntLiteral</title>
<path fill="none" stroke="black" d="M61,-253C61,-240.22 61,-225.96 61,-214.35"/>
<polygon fill="black" stroke="black" points="62.75,-217.51 61,-212.51 59.25,-217.51 62.75,-217.51"/>
</g>
<!-- function&#45;1&#45;__main___Stmt_prop&#45;&gt;function&#45;1&#45;__main___Stmt_IntLiteral -->
<g id="edge19" class="edge">
<title>function&#45;1&#45;__main___Stmt_prop:s&#45;&gt;function&#45;1&#45;__main___Stmt_IntLiteral</title>
<path fill="none" stroke="black" d="M589,-174C589,-158.52 579.77,-144.22 569.76,-133.26"/>
<polygon fill="black" stroke="black" points="574.37,-135.25 569.55,-133.05 571.94,-137.77 574.37,-135.25"/>
</g>
<!-- function&#45;0&#45;__main___Stmt_prop&#45;&gt;function&#45;0&#45;__main___Stmt_IntLiteral -->
<g id="edge20" class="edge">
<title>function&#45;0&#45;__main___Stmt_prop:s&#45;&gt;function&#45;0&#45;__main___Stmt_IntLiteral</title>
<path fill="none" stroke="black" d="M317,-174C317,-159.11 325.16,-144.88 334.01,-133.81"/>
<polygon fill="black" stroke="black" points="333.23,-138.48 334.32,-133.3 330.24,-136.67 333.23,-138.48"/>
</g>
<!-- function&#45;2&#45;__main___Stmt_IntLiteral -->
<g id="node1" class="node">
<title>function&#45;2&#45;__main___Stmt_IntLiteral</title>
<g id="a_node1"><a xlink:title="__main__.Stmt&#45;3: function&#45;2&#45;__main___Stmt_IntLiteral">
<path fill="white" stroke="none" d="M24.67,-174C24.67,-174 97.33,-174 97.33,-174 102.67,-174 108,-179.33 108,-184.67 108,-184.67 108,-195.33 108,-195.33 108,-200.67 102.67,-206 97.33,-206 97.33,-206 24.67,-206 24.67,-206 19.33,-206 14,-200.67 14,-195.33 14,-195.33 14,-184.67 14,-184.67 14,-179.33 19.33,-174 24.67,-174"/>
<text xml:space="preserve" text-anchor="start" x="19" y="-184.57" font-family="Helvetica,sans-Serif" font-size="14.00">Stmt.IntLiteral</text>
<path fill="none" stroke="black" d="M24.67,-174C24.67,-174 97.33,-174 97.33,-174 102.67,-174 108,-179.33 108,-184.67 108,-184.67 108,-195.33 108,-195.33 108,-200.67 102.67,-206 97.33,-206 97.33,-206 24.67,-206 24.67,-206 19.33,-206 14,-200.67 14,-195.33 14,-195.33 14,-184.67 14,-184.67 14,-179.33 19.33,-174 24.67,-174"/>
</a>
</g>
</g>
<!-- primitive&#45;i64&#45;3 -->
<g id="node2" class="node">
<title>primitive&#45;i64&#45;3</title>
<g id="a_node2"><a xlink:title="i64&#45;3: primitive&#45;i64&#45;3">
<path fill="white" stroke="none" d="M109.67,-95C109.67,-95 120.33,-95 120.33,-95 125.67,-95 131,-100.33 131,-105.67 131,-105.67 131,-116.33 131,-116.33 131,-121.67 125.67,-127 120.33,-127 120.33,-127 109.67,-127 109.67,-127 104.33,-127 99,-121.67 99,-116.33 99,-116.33 99,-105.67 99,-105.67 99,-100.33 104.33,-95 109.67,-95"/>
<text xml:space="preserve" text-anchor="start" x="111.25" y="-105.58" font-family="Helvetica,sans-Serif" font-size="14.00">3</text>
<path fill="none" stroke="black" d="M109.67,-95C109.67,-95 120.33,-95 120.33,-95 125.67,-95 131,-100.33 131,-105.67 131,-105.67 131,-116.33 131,-116.33 131,-121.67 125.67,-127 120.33,-127 120.33,-127 109.67,-127 109.67,-127 104.33,-127 99,-121.67 99,-116.33 99,-116.33 99,-105.67 99,-105.67 99,-100.33 104.33,-95 109.67,-95"/>
</a>
</g>
</g>
<!-- function&#45;0&#45;__main___Stmt_IntLiteral -->
<g id="node3" class="node">
<title>function&#45;0&#45;__main___Stmt_IntLiteral</title>
<g id="a_node3"><a xlink:title="__main__.Stmt&#45;0: function&#45;0&#45;__main___Stmt_IntLiteral">
<path fill="white" stroke="none" d="M319.67,-95C319.67,-95 392.33,-95 392.33,-95 397.67,-95 403,-100.33 403,-105.67 403,-105.67 403,-116.33 403,-116.33 403,-121.67 397.67,-127 392.33,-127 392.33,-127 319.67,-127 319.67,-127 314.33,-127 309,-121.67 309,-116.33 309,-116.33 309,-105.67 309,-105.67 309,-100.33 314.33,-95 319.67,-95"/>
<text xml:space="preserve" text-anchor="start" x="314" y="-105.58" font-family="Helvetica,sans-Serif" font-size="14.00">Stmt.IntLiteral</text>
<path fill="none" stroke="black" d="M319.67,-95C319.67,-95 392.33,-95 392.33,-95 397.67,-95 403,-100.33 403,-105.67 403,-105.67 403,-116.33 403,-116.33 403,-121.67 397.67,-127 392.33,-127 392.33,-127 319.67,-127 319.67,-127 314.33,-127 309,-121.67 309,-116.33 309,-116.33 309,-105.67 309,-105.67 309,-100.33 314.33,-95 319.67,-95"/>
</a>
</g>
</g>
<!-- primitive&#45;i64&#45;1 -->
<g id="node4" class="node">
<title>primitive&#45;i64&#45;1</title>
<g id="a_node4"><a xlink:title="i64&#45;1: primitive&#45;i64&#45;1">
<path fill="white" stroke="none" d="M350.67,-16C350.67,-16 361.33,-16 361.33,-16 366.67,-16 372,-21.33 372,-26.67 372,-26.67 372,-37.33 372,-37.33 372,-42.67 366.67,-48 361.33,-48 361.33,-48 350.67,-48 350.67,-48 345.33,-48 340,-42.67 340,-37.33 340,-37.33 340,-26.67 340,-26.67 340,-21.33 345.33,-16 350.67,-16"/>
<text xml:space="preserve" text-anchor="start" x="352.25" y="-26.57" font-family="Helvetica,sans-Serif" font-size="14.00">1</text>
<path fill="none" stroke="black" d="M350.67,-16C350.67,-16 361.33,-16 361.33,-16 366.67,-16 372,-21.33 372,-26.67 372,-26.67 372,-37.33 372,-37.33 372,-42.67 366.67,-48 361.33,-48 361.33,-48 350.67,-48 350.67,-48 345.33,-48 340,-42.67 340,-37.33 340,-37.33 340,-26.67 340,-26.67 340,-21.33 345.33,-16 350.67,-16"/>
</a>
</g>
</g>
<!-- function&#45;0&#45;__main___Stmt_Add -->
<g id="node5" class="node">
<title>function&#45;0&#45;__main___Stmt_Add</title>
<g id="a_node5"><a xlink:title="__main__.Stmt&#45;2: function&#45;0&#45;__main___Stmt_Add">
<path fill="white" stroke="none" d="M424.54,-174C424.54,-174 469.46,-174 469.46,-174 474.79,-174 480.12,-179.33 480.12,-184.67 480.12,-184.67 480.12,-195.33 480.12,-195.33 480.12,-200.67 474.79,-206 469.46,-206 469.46,-206 424.54,-206 424.54,-206 419.21,-206 413.88,-200.67 413.88,-195.33 413.88,-195.33 413.88,-184.67 413.88,-184.67 413.88,-179.33 419.21,-174 424.54,-174"/>
<text xml:space="preserve" text-anchor="start" x="418.88" y="-184.57" font-family="Helvetica,sans-Serif" font-size="14.00">Stmt.Add</text>
<path fill="none" stroke="black" d="M424.54,-174C424.54,-174 469.46,-174 469.46,-174 474.79,-174 480.12,-179.33 480.12,-184.67 480.12,-184.67 480.12,-195.33 480.12,-195.33 480.12,-200.67 474.79,-206 469.46,-206 469.46,-206 424.54,-206 424.54,-206 419.21,-206 413.88,-200.67 413.88,-195.33 413.88,-195.33 413.88,-184.67 413.88,-184.67 413.88,-179.33 419.21,-174 424.54,-174"/>
</a>
</g>
</g>
<!-- function&#45;1&#45;__main___Stmt_IntLiteral -->
<g id="node6" class="node">
<title>function&#45;1&#45;__main___Stmt_IntLiteral</title>
<g id="a_node6"><a xlink:title="__main__.Stmt&#45;1: function&#45;1&#45;__main___Stmt_IntLiteral">
<path fill="white" stroke="none" d="M508.67,-95C508.67,-95 581.33,-95 581.33,-95 586.67,-95 592,-100.33 592,-105.67 592,-105.67 592,-116.33 592,-116.33 592,-121.67 586.67,-127 581.33,-127 581.33,-127 508.67,-127 508.67,-127 503.33,-127 498,-121.67 498,-116.33 498,-116.33 498,-105.67 498,-105.67 498,-100.33 503.33,-95 508.67,-95"/>
<text xml:space="preserve" text-anchor="start" x="503" y="-105.58" font-family="Helvetica,sans-Serif" font-size="14.00">Stmt.IntLiteral</text>
<path fill="none" stroke="black" d="M508.67,-95C508.67,-95 581.33,-95 581.33,-95 586.67,-95 592,-100.33 592,-105.67 592,-105.67 592,-116.33 592,-116.33 592,-121.67 586.67,-127 581.33,-127 581.33,-127 508.67,-127 508.67,-127 503.33,-127 498,-121.67 498,-116.33 498,-116.33 498,-105.67 498,-105.67 498,-100.33 503.33,-95 508.67,-95"/>
</a>
</g>
</g>
<!-- function&#45;2&#45;__main___Stmt_Add -->
<g id="node7" class="node">
<title>function&#45;2&#45;__main___Stmt_Add</title>
<g id="a_node7"><a xlink:title="__main__.Stmt&#45;2: function&#45;2&#45;__main___Stmt_Add">
<path fill="white" stroke="none" d="M494.54,-174C494.54,-174 539.46,-174 539.46,-174 544.79,-174 550.12,-179.33 550.12,-184.67 550.12,-184.67 550.12,-195.33 550.12,-195.33 550.12,-200.67 544.79,-206 539.46,-206 539.46,-206 494.54,-206 494.54,-206 489.21,-206 483.88,-200.67 483.88,-195.33 483.88,-195.33 483.88,-184.67 483.88,-184.67 483.88,-179.33 489.21,-174 494.54,-174"/>
<text xml:space="preserve" text-anchor="start" x="488.88" y="-184.57" font-family="Helvetica,sans-Serif" font-size="14.00">Stmt.Add</text>
<path fill="none" stroke="black" d="M494.54,-174C494.54,-174 539.46,-174 539.46,-174 544.79,-174 550.12,-179.33 550.12,-184.67 550.12,-184.67 550.12,-195.33 550.12,-195.33 550.12,-200.67 544.79,-206 539.46,-206 539.46,-206 494.54,-206 494.54,-206 489.21,-206 483.88,-200.67 483.88,-195.33 483.88,-195.33 483.88,-184.67 483.88,-184.67 483.88,-179.33 489.21,-174 494.54,-174"/>
</a>
</g>
</g>
<!-- split&#45;0&#45;primitive&#45;i64&#45;2 -->
<g id="node8" class="node">
<title>split&#45;0&#45;primitive&#45;i64&#45;2</title>
<g id="a_node8"><a xlink:title="split&#45;0&#45;primitive&#45;i64&#45;2: split&#45;0&#45;primitive&#45;i64&#45;2">
<path fill="white" stroke="none" d="M539.67,-16C539.67,-16 550.33,-16 550.33,-16 555.67,-16 561,-21.33 561,-26.67 561,-26.67 561,-37.33 561,-37.33 561,-42.67 555.67,-48 550.33,-48 550.33,-48 539.67,-48 539.67,-48 534.33,-48 529,-42.67 529,-37.33 529,-37.33 529,-26.67 529,-26.67 529,-21.33 534.33,-16 539.67,-16"/>
<text xml:space="preserve" text-anchor="start" x="541.25" y="-26.57" font-family="Helvetica,sans-Serif" font-size="14.00">2</text>
<path fill="none" stroke="black" d="M539.67,-16C539.67,-16 550.33,-16 550.33,-16 555.67,-16 561,-21.33 561,-26.67 561,-26.67 561,-37.33 561,-37.33 561,-42.67 555.67,-48 550.33,-48 550.33,-48 539.67,-48 539.67,-48 534.33,-48 529,-42.67 529,-37.33 529,-37.33 529,-26.67 529,-26.67 529,-21.33 534.33,-16 539.67,-16"/>
</a>
</g>
</g>
<!-- function&#45;1&#45;__main___Stmt_Add -->
<g id="node9" class="node">
<title>function&#45;1&#45;__main___Stmt_Add</title>
<g id="a_node9"><a xlink:title="__main__.Stmt&#45;4: function&#45;1&#45;__main___Stmt_Add">
<path fill="white" stroke="none" d="M253.54,-253C253.54,-253 298.46,-253 298.46,-253 303.79,-253 309.12,-258.33 309.12,-263.67 309.12,-263.67 309.12,-274.33 309.12,-274.33 309.12,-279.67 303.79,-285 298.46,-285 298.46,-285 253.54,-285 253.54,-285 248.21,-285 242.88,-279.67 242.88,-274.33 242.88,-274.33 242.88,-263.67 242.88,-263.67 242.88,-258.33 248.21,-253 253.54,-253"/>
<text xml:space="preserve" text-anchor="start" x="247.88" y="-263.57" font-family="Helvetica,sans-Serif" font-size="14.00">Stmt.Add</text>
<path fill="none" stroke="black" d="M253.54,-253C253.54,-253 298.46,-253 298.46,-253 303.79,-253 309.12,-258.33 309.12,-263.67 309.12,-263.67 309.12,-274.33 309.12,-274.33 309.12,-279.67 303.79,-285 298.46,-285 298.46,-285 253.54,-285 253.54,-285 248.21,-285 242.88,-279.67 242.88,-274.33 242.88,-274.33 242.88,-263.67 242.88,-263.67 242.88,-258.33 248.21,-253 253.54,-253"/>
</a>
</g>
</g>
<!-- function&#45;3&#45;__main___Stmt_Add -->
<g id="node10" class="node">
<title>function&#45;3&#45;__main___Stmt_Add</title>
<g id="a_node10"><a xlink:title="__main__.Stmt&#45;4: function&#45;3&#45;__main___Stmt_Add">
<path fill="white" stroke="none" d="M323.54,-253C323.54,-253 368.46,-253 368.46,-253 373.79,-253 379.12,-258.33 379.12,-263.67 379.12,-263.67 379.12,-274.33 379.12,-274.33 379.12,-279.67 373.79,-285 368.46,-285 368.46,-285 323.54,-285 323.54,-285 318.21,-285 312.88,-279.67 312.88,-274.33 312.88,-274.33 312.88,-263.67 312.88,-263.67 312.88,-258.33 318.21,-253 323.54,-253"/>
<text xml:space="preserve" text-anchor="start" x="317.88" y="-263.57" font-family="Helvetica,sans-Serif" font-size="14.00">Stmt.Add</text>
<path fill="none" stroke="black" d="M323.54,-253C323.54,-253 368.46,-253 368.46,-253 373.79,-253 379.12,-258.33 379.12,-263.67 379.12,-263.67 379.12,-274.33 379.12,-274.33 379.12,-279.67 373.79,-285 368.46,-285 368.46,-285 323.54,-285 323.54,-285 318.21,-285 312.88,-279.67 312.88,-274.33 312.88,-274.33 312.88,-263.67 312.88,-263.67 312.88,-258.33 318.21,-253 323.54,-253"/>
</a>
</g>
</g>
<!-- function&#45;0&#45;__main___Stmt_prop2 -->
<g id="node11" class="node">
<title>function&#45;0&#45;__main___Stmt_prop2</title>
<g id="a_node11"><a xlink:title="__main__.TestExpr&#45;5: function&#45;0&#45;__main___Stmt_prop2">
<path fill="white" stroke="none" d="M235.29,-174C235.29,-174 266.71,-174 266.71,-174 272.04,-174 277.38,-179.33 277.38,-184.67 277.38,-184.67 277.38,-195.33 277.38,-195.33 277.38,-200.67 272.04,-206 266.71,-206 266.71,-206 235.29,-206 235.29,-206 229.96,-206 224.62,-200.67 224.62,-195.33 224.62,-195.33 224.62,-184.67 224.62,-184.67 224.62,-179.33 229.96,-174 235.29,-174"/>
<text xml:space="preserve" text-anchor="start" x="229.62" y="-184.57" font-family="Helvetica,sans-Serif" font-size="14.00">·.prop2</text>
<path fill="none" stroke="black" d="M235.29,-174C235.29,-174 266.71,-174 266.71,-174 272.04,-174 277.38,-179.33 277.38,-184.67 277.38,-184.67 277.38,-195.33 277.38,-195.33 277.38,-200.67 272.04,-206 266.71,-206 266.71,-206 235.29,-206 235.29,-206 229.96,-206 224.62,-200.67 224.62,-195.33 224.62,-195.33 224.62,-184.67 224.62,-184.67 224.62,-179.33 229.96,-174 235.29,-174"/>
</a>
</g>
</g>
<!-- function&#45;0&#45;__main___TestExpr_TEST -->
<g id="node12" class="node">
<title>function&#45;0&#45;__main___TestExpr_TEST</title>
<g id="a_node12"><a xlink:title="__main__.TestExpr&#45;5: function&#45;0&#45;__main___TestExpr_TEST">
<path fill="white" stroke="none" d="M130.67,-174C130.67,-174 209.33,-174 209.33,-174 214.67,-174 220,-179.33 220,-184.67 220,-184.67 220,-195.33 220,-195.33 220,-200.67 214.67,-206 209.33,-206 209.33,-206 130.67,-206 130.67,-206 125.33,-206 120,-200.67 120,-195.33 120,-195.33 120,-184.67 120,-184.67 120,-179.33 125.33,-174 130.67,-174"/>
<text xml:space="preserve" text-anchor="start" x="125" y="-184.57" font-family="Helvetica,sans-Serif" font-size="14.00">TestExpr.TEST</text>
<path fill="none" stroke="black" d="M130.67,-174C130.67,-174 209.33,-174 209.33,-174 214.67,-174 220,-179.33 220,-184.67 220,-184.67 220,-195.33 220,-195.33 220,-200.67 214.67,-206 209.33,-206 209.33,-206 130.67,-206 130.67,-206 125.33,-206 120,-200.67 120,-195.33 120,-195.33 120,-184.67 120,-184.67 120,-179.33 125.33,-174 130.67,-174"/>
</a>
</g>
</g>
<!-- function&#45;1&#45;__main___Stmt_prop2 -->
<g id="node13" class="node">
<title>function&#45;1&#45;__main___Stmt_prop2</title>
<g id="a_node13"><a xlink:title="__main__.TestExpr&#45;6: function&#45;1&#45;__main___Stmt_prop2">
<path fill="white" stroke="none" d="M697.29,-174C697.29,-174 728.71,-174 728.71,-174 734.04,-174 739.38,-179.33 739.38,-184.67 739.38,-184.67 739.38,-195.33 739.38,-195.33 739.38,-200.67 734.04,-206 728.71,-206 728.71,-206 697.29,-206 697.29,-206 691.96,-206 686.62,-200.67 686.62,-195.33 686.62,-195.33 686.62,-184.67 686.62,-184.67 686.62,-179.33 691.96,-174 697.29,-174"/>
<text xml:space="preserve" text-anchor="start" x="691.62" y="-184.57" font-family="Helvetica,sans-Serif" font-size="14.00">·.prop2</text>
<path fill="none" stroke="black" d="M697.29,-174C697.29,-174 728.71,-174 728.71,-174 734.04,-174 739.38,-179.33 739.38,-184.67 739.38,-184.67 739.38,-195.33 739.38,-195.33 739.38,-200.67 734.04,-206 728.71,-206 728.71,-206 697.29,-206 697.29,-206 691.96,-206 686.62,-200.67 686.62,-195.33 686.62,-195.33 686.62,-184.67 686.62,-184.67 686.62,-179.33 691.96,-174 697.29,-174"/>
</a>
</g>
</g>
<!-- function&#45;1&#45;__main___TestExpr_TEST -->
<g id="node14" class="node">
<title>function&#45;1&#45;__main___TestExpr_TEST</title>
<g id="a_node14"><a xlink:title="__main__.TestExpr&#45;6: function&#45;1&#45;__main___TestExpr_TEST">
<path fill="white" stroke="none" d="M754.67,-174C754.67,-174 833.33,-174 833.33,-174 838.67,-174 844,-179.33 844,-184.67 844,-184.67 844,-195.33 844,-195.33 844,-200.67 838.67,-206 833.33,-206 833.33,-206 754.67,-206 754.67,-206 749.33,-206 744,-200.67 744,-195.33 744,-195.33 744,-184.67 744,-184.67 744,-179.33 749.33,-174 754.67,-174"/>
<text xml:space="preserve" text-anchor="start" x="749" y="-184.57" font-family="Helvetica,sans-Serif" font-size="14.00">TestExpr.TEST</text>
<path fill="none" stroke="black" d="M754.67,-174C754.67,-174 833.33,-174 833.33,-174 838.67,-174 844,-179.33 844,-184.67 844,-184.67 844,-195.33 844,-195.33 844,-200.67 838.67,-206 833.33,-206 833.33,-206 754.67,-206 754.67,-206 749.33,-206 744,-200.67 744,-195.33 744,-195.33 744,-184.67 744,-184.67 744,-179.33 749.33,-174 754.67,-174"/>
</a>
</g>
</g>
<!-- split&#45;0&#45;primitive&#45;i64&#45;6 -->
<g id="node15" class="node">
<title>split&#45;0&#45;primitive&#45;i64&#45;6</title>
<g id="a_node15"><a xlink:title="split&#45;0&#45;primitive&#45;i64&#45;6: split&#45;0&#45;primitive&#45;i64&#45;6">
<path fill="white" stroke="none" d="M788.67,-95C788.67,-95 799.33,-95 799.33,-95 804.67,-95 810,-100.33 810,-105.67 810,-105.67 810,-116.33 810,-116.33 810,-121.67 804.67,-127 799.33,-127 799.33,-127 788.67,-127 788.67,-127 783.33,-127 778,-121.67 778,-116.33 778,-116.33 778,-105.67 778,-105.67 778,-100.33 783.33,-95 788.67,-95"/>
<text xml:space="preserve" text-anchor="start" x="790.25" y="-105.58" font-family="Helvetica,sans-Serif" font-size="14.00">6</text>
<path fill="none" stroke="black" d="M788.67,-95C788.67,-95 799.33,-95 799.33,-95 804.67,-95 810,-100.33 810,-105.67 810,-105.67 810,-116.33 810,-116.33 810,-121.67 804.67,-127 799.33,-127 799.33,-127 788.67,-127 788.67,-127 783.33,-127 778,-121.67 778,-116.33 778,-116.33 778,-105.67 778,-105.67 778,-100.33 783.33,-95 788.67,-95"/>
</a>
</g>
</g>
<!-- function&#45;2&#45;__main___Stmt_prop2 -->
<g id="node16" class="node">
<title>function&#45;2&#45;__main___Stmt_prop2</title>
<g id="a_node16"><a xlink:title="__main__.TestExpr&#45;7: function&#45;2&#45;__main___Stmt_prop2">
<path fill="white" stroke="none" d="M582.29,-253C582.29,-253 613.71,-253 613.71,-253 619.04,-253 624.38,-258.33 624.38,-263.67 624.38,-263.67 624.38,-274.33 624.38,-274.33 624.38,-279.67 619.04,-285 613.71,-285 613.71,-285 582.29,-285 582.29,-285 576.96,-285 571.62,-279.67 571.62,-274.33 571.62,-274.33 571.62,-263.67 571.62,-263.67 571.62,-258.33 576.96,-253 582.29,-253"/>
<text xml:space="preserve" text-anchor="start" x="576.62" y="-263.57" font-family="Helvetica,sans-Serif" font-size="14.00">·.prop2</text>
<path fill="none" stroke="black" d="M582.29,-253C582.29,-253 613.71,-253 613.71,-253 619.04,-253 624.38,-258.33 624.38,-263.67 624.38,-263.67 624.38,-274.33 624.38,-274.33 624.38,-279.67 619.04,-285 613.71,-285 613.71,-285 582.29,-285 582.29,-285 576.96,-285 571.62,-279.67 571.62,-274.33 571.62,-274.33 571.62,-263.67 571.62,-263.67 571.62,-258.33 576.96,-253 582.29,-253"/>
</a>
</g>
</g>
<!-- function&#45;2&#45;__main___TestExpr_TEST -->
<g id="node17" class="node">
<title>function&#45;2&#45;__main___TestExpr_TEST</title>
<g id="a_node17"><a xlink:title="__main__.TestExpr&#45;7: function&#45;2&#45;__main___TestExpr_TEST">
<path fill="white" stroke="none" d="M639.67,-253C639.67,-253 718.33,-253 718.33,-253 723.67,-253 729,-258.33 729,-263.67 729,-263.67 729,-274.33 729,-274.33 729,-279.67 723.67,-285 718.33,-285 718.33,-285 639.67,-285 639.67,-285 634.33,-285 629,-279.67 629,-274.33 629,-274.33 629,-263.67 629,-263.67 629,-258.33 634.33,-253 639.67,-253"/>
<text xml:space="preserve" text-anchor="start" x="634" y="-263.57" font-family="Helvetica,sans-Serif" font-size="14.00">TestExpr.TEST</text>
<path fill="none" stroke="black" d="M639.67,-253C639.67,-253 718.33,-253 718.33,-253 723.67,-253 729,-258.33 729,-263.67 729,-263.67 729,-274.33 729,-274.33 729,-279.67 723.67,-285 718.33,-285 718.33,-285 639.67,-285 639.67,-285 634.33,-285 629,-279.67 629,-274.33 629,-274.33 629,-263.67 629,-263.67 629,-258.33 634.33,-253 639.67,-253"/>
</a>
</g>
</g>
<!-- primitive&#45;i64&#45;9 -->
<g id="node18" class="node">
<title>primitive&#45;i64&#45;9</title>
<g id="a_node18"><a xlink:title="i64&#45;9: primitive&#45;i64&#45;9">
<path fill="white" stroke="none" d="M877.67,-174C877.67,-174 888.33,-174 888.33,-174 893.67,-174 899,-179.33 899,-184.67 899,-184.67 899,-195.33 899,-195.33 899,-200.67 893.67,-206 888.33,-206 888.33,-206 877.67,-206 877.67,-206 872.33,-206 867,-200.67 867,-195.33 867,-195.33 867,-184.67 867,-184.67 867,-179.33 872.33,-174 877.67,-174"/>
<text xml:space="preserve" text-anchor="start" x="879.25" y="-184.57" font-family="Helvetica,sans-Serif" font-size="14.00">9</text>
<path fill="none" stroke="black" d="M877.67,-174C877.67,-174 888.33,-174 888.33,-174 893.67,-174 899,-179.33 899,-184.67 899,-184.67 899,-195.33 899,-195.33 899,-200.67 893.67,-206 888.33,-206 888.33,-206 877.67,-206 877.67,-206 872.33,-206 867,-200.67 867,-195.33 867,-195.33 867,-184.67 867,-184.67 867,-179.33 872.33,-174 877.67,-174"/>
</a>
</g>
</g>
<!-- function&#45;2&#45;__main___Stmt_prop -->
<g id="node19" class="node">
<title>function&#45;2&#45;__main___Stmt_prop</title>
<g id="a_node19"><a xlink:title="i64&#45;6: function&#45;2&#45;__main___Stmt_prop">
<path fill="white" stroke="none" d="M49.04,-253C49.04,-253 72.96,-253 72.96,-253 78.29,-253 83.62,-258.33 83.62,-263.67 83.62,-263.67 83.62,-274.33 83.62,-274.33 83.62,-279.67 78.29,-285 72.96,-285 72.96,-285 49.04,-285 49.04,-285 43.71,-285 38.38,-279.67 38.38,-274.33 38.38,-274.33 38.38,-263.67 38.38,-263.67 38.38,-258.33 43.71,-253 49.04,-253"/>
<text xml:space="preserve" text-anchor="start" x="43.38" y="-263.57" font-family="Helvetica,sans-Serif" font-size="14.00">·.prop</text>
<path fill="none" stroke="black" d="M49.04,-253C49.04,-253 72.96,-253 72.96,-253 78.29,-253 83.62,-258.33 83.62,-263.67 83.62,-263.67 83.62,-274.33 83.62,-274.33 83.62,-279.67 78.29,-285 72.96,-285 72.96,-285 49.04,-285 49.04,-285 43.71,-285 38.38,-279.67 38.38,-274.33 38.38,-274.33 38.38,-263.67 38.38,-263.67 38.38,-258.33 43.71,-253 49.04,-253"/>
</a>
</g>
</g>
<!-- primitive&#45;i64&#45;6 -->
<g id="node20" class="node">
<title>primitive&#45;i64&#45;6</title>
<g id="a_node20"><a xlink:title="i64&#45;6: primitive&#45;i64&#45;6">
<path fill="white" stroke="none" d="M113.67,-253C113.67,-253 124.33,-253 124.33,-253 129.67,-253 135,-258.33 135,-263.67 135,-263.67 135,-274.33 135,-274.33 135,-279.67 129.67,-285 124.33,-285 124.33,-285 113.67,-285 113.67,-285 108.33,-285 103,-279.67 103,-274.33 103,-274.33 103,-263.67 103,-263.67 103,-258.33 108.33,-253 113.67,-253"/>
<text xml:space="preserve" text-anchor="start" x="115.25" y="-263.57" font-family="Helvetica,sans-Serif" font-size="14.00">6</text>
<path fill="none" stroke="black" d="M113.67,-253C113.67,-253 124.33,-253 124.33,-253 129.67,-253 135,-258.33 135,-263.67 135,-263.67 135,-274.33 135,-274.33 135,-279.67 129.67,-285 124.33,-285 124.33,-285 113.67,-285 113.67,-285 108.33,-285 103,-279.67 103,-274.33 103,-274.33 103,-263.67 103,-263.67 103,-258.33 108.33,-253 113.67,-253"/>
</a>
</g>
</g>
<!-- function&#45;1&#45;__main___Stmt_prop -->
<g id="node21" class="node">
<title>function&#45;1&#45;__main___Stmt_prop</title>
<g id="a_node21"><a xlink:title="i64&#45;4: function&#45;1&#45;__main___Stmt_prop">
<path fill="white" stroke="none" d="M577.04,-174C577.04,-174 600.96,-174 600.96,-174 606.29,-174 611.62,-179.33 611.62,-184.67 611.62,-184.67 611.62,-195.33 611.62,-195.33 611.62,-200.67 606.29,-206 600.96,-206 600.96,-206 577.04,-206 577.04,-206 571.71,-206 566.38,-200.67 566.38,-195.33 566.38,-195.33 566.38,-184.67 566.38,-184.67 566.38,-179.33 571.71,-174 577.04,-174"/>
<text xml:space="preserve" text-anchor="start" x="571.38" y="-184.57" font-family="Helvetica,sans-Serif" font-size="14.00">·.prop</text>
<path fill="none" stroke="black" d="M577.04,-174C577.04,-174 600.96,-174 600.96,-174 606.29,-174 611.62,-179.33 611.62,-184.67 611.62,-184.67 611.62,-195.33 611.62,-195.33 611.62,-200.67 606.29,-206 600.96,-206 600.96,-206 577.04,-206 577.04,-206 571.71,-206 566.38,-200.67 566.38,-195.33 566.38,-195.33 566.38,-184.67 566.38,-184.67 566.38,-179.33 571.71,-174 577.04,-174"/>
</a>
</g>
</g>
<!-- primitive&#45;i64&#45;4 -->
<g id="node22" class="node">
<title>primitive&#45;i64&#45;4</title>
<g id="a_node22"><a xlink:title="i64&#45;4: primitive&#45;i64&#45;4">
<path fill="white" stroke="none" d="M641.67,-174C641.67,-174 652.33,-174 652.33,-174 657.67,-174 663,-179.33 663,-184.67 663,-184.67 663,-195.33 663,-195.33 663,-200.67 657.67,-206 652.33,-206 652.33,-206 641.67,-206 641.67,-206 636.33,-206 631,-200.67 631,-195.33 631,-195.33 631,-184.67 631,-184.67 631,-179.33 636.33,-174 641.67,-174"/>
<text xml:space="preserve" text-anchor="start" x="643.25" y="-184.57" font-family="Helvetica,sans-Serif" font-size="14.00">4</text>
<path fill="none" stroke="black" d="M641.67,-174C641.67,-174 652.33,-174 652.33,-174 657.67,-174 663,-179.33 663,-184.67 663,-184.67 663,-195.33 663,-195.33 663,-200.67 657.67,-206 652.33,-206 652.33,-206 641.67,-206 641.67,-206 636.33,-206 631,-200.67 631,-195.33 631,-195.33 631,-184.67 631,-184.67 631,-179.33 636.33,-174 641.67,-174"/>
</a>
</g>
</g>
<!-- function&#45;0&#45;__main___Stmt_prop -->
<g id="node23" class="node">
<title>function&#45;0&#45;__main___Stmt_prop</title>
<g id="a_node23"><a xlink:title="i64&#45;2: function&#45;0&#45;__main___Stmt_prop">
<path fill="white" stroke="none" d="M305.04,-174C305.04,-174 328.96,-174 328.96,-174 334.29,-174 339.62,-179.33 339.62,-184.67 339.62,-184.67 339.62,-195.33 339.62,-195.33 339.62,-200.67 334.29,-206 328.96,-206 328.96,-206 305.04,-206 305.04,-206 299.71,-206 294.38,-200.67 294.38,-195.33 294.38,-195.33 294.38,-184.67 294.38,-184.67 294.38,-179.33 299.71,-174 305.04,-174"/>
<text xml:space="preserve" text-anchor="start" x="299.38" y="-184.57" font-family="Helvetica,sans-Serif" font-size="14.00">·.prop</text>
<path fill="none" stroke="black" d="M305.04,-174C305.04,-174 328.96,-174 328.96,-174 334.29,-174 339.62,-179.33 339.62,-184.67 339.62,-184.67 339.62,-195.33 339.62,-195.33 339.62,-200.67 334.29,-206 328.96,-206 328.96,-206 305.04,-206 305.04,-206 299.71,-206 294.38,-200.67 294.38,-195.33 294.38,-195.33 294.38,-184.67 294.38,-184.67 294.38,-179.33 299.71,-174 305.04,-174"/>
</a>
</g>
</g>
<!-- primitive&#45;i64&#45;2 -->
<g id="node24" class="node">
<title>primitive&#45;i64&#45;2</title>
<g id="a_node24"><a xlink:title="i64&#45;2: primitive&#45;i64&#45;2">
<path fill="white" stroke="none" d="M369.67,-174C369.67,-174 380.33,-174 380.33,-174 385.67,-174 391,-179.33 391,-184.67 391,-184.67 391,-195.33 391,-195.33 391,-200.67 385.67,-206 380.33,-206 380.33,-206 369.67,-206 369.67,-206 364.33,-206 359,-200.67 359,-195.33 359,-195.33 359,-184.67 359,-184.67 359,-179.33 364.33,-174 369.67,-174"/>
<text xml:space="preserve" text-anchor="start" x="371.25" y="-184.57" font-family="Helvetica,sans-Serif" font-size="14.00">2</text>
<path fill="none" stroke="black" d="M369.67,-174C369.67,-174 380.33,-174 380.33,-174 385.67,-174 391,-179.33 391,-184.67 391,-184.67 391,-195.33 391,-195.33 391,-200.67 385.67,-206 380.33,-206 380.33,-206 369.67,-206 369.67,-206 364.33,-206 359,-200.67 359,-195.33 359,-195.33 359,-184.67 359,-184.67 359,-179.33 364.33,-174 369.67,-174"/>
</a>
</g>
</g>
</g>
</svg>
